<svg xmlns="http://www.w3.org/2000/svg" width="54" height="54.004" viewBox="0 0 54 54.004">
  <g id="ico_pin" transform="translate(-1724 -901.996)">
    <g id="ico_pin-2" data-name="ico_pin" transform="translate(1724 902)">
      <rect id="사각형_7454" data-name="사각형 7454" width="54" height="54" fill="none"/>
    </g>
    <g id="그룹_14157" data-name="그룹 14157" transform="translate(1724 901.996)">
      <g id="그룹_14158" data-name="그룹 14158">
        <path id="패스_13988" data-name="패스 13988" d="M53.371,17.457,44.957,9.043,36.543.629a2.163,2.163,0,0,0-3.05,0l-.636.636a2.163,2.163,0,0,0,0,3.05l2.7,2.7L15.456,20.269l-.51-.509a3.566,3.566,0,0,0-5.029,0L7.757,21.92l9.275,9.275L0,54H0L22.8,36.968l9.275,9.275h0l2.161-2.161a3.57,3.57,0,0,0,.632-4.17,3.529,3.529,0,0,0-.632-.859l-.509-.509L46.98,18.438l2.7,2.7a2.163,2.163,0,0,0,3.05,0l.636-.636a2.163,2.163,0,0,0,0-3.05" fill="#eabb23"/>
      </g>
    </g>
  </g>
</svg>
