<svg id="icon_file" xmlns="http://www.w3.org/2000/svg" width="54" height="54" viewBox="0 0 54 54">
  <rect id="사각형_7342" data-name="사각형 7342" width="54" height="54" fill="none"/>
  <g id="타원_49" data-name="타원 49" fill="#131720" stroke="#c9c9c9" stroke-width="2">
    <circle cx="27" cy="27" r="27" stroke="none"/>
    <circle cx="27" cy="27" r="26" fill="none"/>
  </g>
  <g id="그룹_13978" data-name="그룹 13978" transform="translate(15.235 12.822)">
    <g id="그룹_13979" data-name="그룹 13979" transform="translate(0 0)">
      <path id="패스_13930" data-name="패스 13930" d="M3.372,0A3.378,3.378,0,0,0,0,3.372V25.4a3.378,3.378,0,0,0,3.372,3.372H19.9A3.378,3.378,0,0,0,23.268,25.4V7.5a.618.618,0,0,0-.181-.437L16.2.181A.618.618,0,0,0,15.765,0ZM4.749,11.016h13.77a.618.618,0,0,1,0,1.236H4.749a.618.618,0,0,1,0-1.236m0,4.131h13.77a.618.618,0,0,1,0,1.236H4.749a.618.618,0,1,1,0-1.236m0,4.131h13.77a.618.618,0,0,1,0,1.236H4.749a.618.618,0,1,1,0-1.236m0,4.131h13.77a.618.618,0,0,1,0,1.236H4.749a.618.618,0,1,1,0-1.236" transform="translate(0 0)" fill="#c9c9c9" fill-rule="evenodd"/>
    </g>
  </g>
</svg>
