<svg id="Layer_1" height="512" viewBox="0 0 64 64" width="512" xmlns="http://www.w3.org/2000/svg" data-name="Layer 1"><rect fill="#fff" height="44" rx="1" width="50" x="12" y="2"/><circle cx="13" cy="20" fill="#f78c8c" r="10"/><path d="m19.99625 34h-15a3 3 0 0 0 -3 3v10a3 3 0 0 0 3 3h1a2 2 0 0 1 2 2l.00375 9a1 1 0 0 0 1 1h8a1 1 0 0 0 1-1l-.00375-17 16.303-9.05534a3.306 3.306 0 0 0 1.70075-2.89014 3.306 3.306 0 0 0 -4.6309-3.029z" fill="#f78c8c"/><circle cx="38" cy="58" fill="#fff" r="4"/><path d="m61 2h-4a1 1 0 0 1 1 1v42a1 1 0 0 1 -1 1h4a1 1 0 0 0 1-1v-42a1 1 0 0 0 -1-1z" opacity=".1"/><path d="m38 54a3.9588 3.9588 0 0 0 -2 .55475 3.96739 3.96739 0 0 1 0 6.89044 3.95885 3.95885 0 0 0 2 .55481 4 4 0 0 0 0-8z" opacity=".1"/><path d="m13 10a10.042 10.042 0 0 0 -2 .20087 10.00143 10.00143 0 0 1 0 19.59826 10.00053 10.00053 0 1 0 2-19.79913z" opacity=".1"/><path d="m31.78241 28.87561a3.30516 3.30516 0 0 1 -1.48315 4.069l-16.30298 9.05539.00262 20h3.0011a1 1 0 0 0 1-1l-.00372-17 16.303-9.05536a3.30656 3.30656 0 0 0 -2.51685-6.069z" opacity=".1"/><path d="m61 0h-48a3.00328 3.00328 0 0 0 -3 3v5.39587a11.98724 11.98724 0 1 0 4-.34539v-4.05048h46v40h-37.88135l13.15479-7.30664a5.32686 5.32686 0 0 0 1.90747-7.46277l6.54663-11.22278a2 2 0 1 0 -3.45508-2.01562l-6.35937 10.90181a5.284 5.284 0 0 0 -3.3418.29889l-10.98929 4.80711h-14.582a5.00588 5.00588 0 0 0 -5 5v10a5.00588 5.00588 0 0 0 5 5l1 .001.00391 8.999a3.00328 3.00328 0 0 0 3 3h8a3.00339 3.00339 0 0 0 3-3.00049l-.00324-12.99951h15.99933v4.35242a6 6 0 1 0 4 0v-4.35242h21a3.00328 3.00328 0 0 0 3-3v-42a3.00328 3.00328 0 0 0 -3-3zm-39.99609 20a8 8 0 1 1 -8-8 8.00917 8.00917 0 0 1 8 8zm-3.97461 22.25146a2.0001 2.0001 0 0 0 -1.0293 1.74903l.00391 15.99951h-6l-.00391-8a4.00427 4.00427 0 0 0 -4-4h-1a1.001 1.001 0 0 1 -1-1v-10a1.001 1.001 0 0 1 1-1h15a2.00691 2.00691 0 0 0 .80176-.16748l11.37207-4.97461a1.30686 1.30686 0 0 1 1.1582 2.33838zm20.9707 17.74854a2 2 0 1 1 2-2 2.00229 2.00229 0 0 1 -2 2z" fill="#4d4d4d"/><circle cx="46" cy="10" fill="#f78c8c" r="2"/></svg>