<svg xmlns="http://www.w3.org/2000/svg" xmlns:xlink="http://www.w3.org/1999/xlink" width="32" height="32" viewBox="0 0 32 32">
  <defs>
    <clipPath id="clip-path">
      <rect id="사각형_7174" data-name="사각형 7174" width="30" height="32" fill="none"/>
    </clipPath>
  </defs>
  <g id="icon_manage" transform="translate(-246 -99)">
    <rect id="사각형_7184" data-name="사각형 7184" width="32" height="32" transform="translate(246 99)" fill="none"/>
    <g id="그룹_13848" data-name="그룹 13848" transform="translate(247 99)">
      <g id="그룹_13847" data-name="그룹 13847" clip-path="url(#clip-path)">
        <path id="패스_13785" data-name="패스 13785" d="M26.774,16a12.239,12.239,0,0,0-.352-2.865L30,10.479,27.191,5.521,23.148,7.35a11.7,11.7,0,0,0-4.872-2.87L17.809,0H12.191l-.467,4.48A11.7,11.7,0,0,0,6.852,7.35L2.809,5.521,0,10.479l3.578,2.656a11.848,11.848,0,0,0,0,5.731L0,21.521l2.809,4.958L6.852,24.65a11.707,11.707,0,0,0,4.872,2.869L12.191,32h5.618l.467-4.48a11.707,11.707,0,0,0,4.872-2.869l4.043,1.829L30,21.521l-3.578-2.656A12.239,12.239,0,0,0,26.774,16M15,21.647a5.648,5.648,0,1,1,5.54-5.754c0,.036,0,.071,0,.107A5.6,5.6,0,0,1,15,21.647" fill="#d6d6d6"/>
      </g>
    </g>
  </g>
</svg>
