<svg xmlns="http://www.w3.org/2000/svg" xmlns:xlink="http://www.w3.org/1999/xlink" width="54" height="54.04" viewBox="0 0 54 54.04">
  <defs>
    <clipPath id="clip-path">
      <rect id="사각형_7291" data-name="사각형 7291" width="54" height="54.04" fill="#fff"/>
    </clipPath>
  </defs>
  <g id="m_dashboard01_wt" transform="translate(-1123 -951)">
    <rect id="사각형_7279" data-name="사각형 7279" width="54" height="54" transform="translate(1123 951)" fill="none"/>
    <g id="그룹_13904" data-name="그룹 13904" transform="translate(1123 951)">
      <g id="그룹_13903" data-name="그룹 13903" clip-path="url(#clip-path)">
        <path id="패스_13861" data-name="패스 13861" d="M22.436,267.2c.669,0,1.344-.016,2.017-.043a15.943,15.943,0,0,1,1.229-9.183c-1.071.07-2.156.106-3.246.106A40.578,40.578,0,0,1,5.37,254.689,16.8,16.8,0,0,1,0,250.87v6.157C0,262.541,10.275,267.2,22.436,267.2M7.077,259.8a1.118,1.118,0,0,1,.06-.2,1.068,1.068,0,0,1,.1-.182,1.023,1.023,0,0,1,.132-.16,1.056,1.056,0,0,1,.339-.229,1,1,0,0,1,.2-.059,1.045,1.045,0,0,1,.413,0,.988.988,0,0,1,.2.059,1.052,1.052,0,0,1,.183.1,1.076,1.076,0,0,1,.16.132,1.011,1.011,0,0,1,.131.16,1.068,1.068,0,0,1,.1.182,1.118,1.118,0,0,1,.06.2,1.049,1.049,0,0,1-.288.95,1.01,1.01,0,0,1-.16.131,1.046,1.046,0,0,1-.183.1,1.066,1.066,0,0,1-.2.06,1.034,1.034,0,0,1-.211.021,1.048,1.048,0,0,1-.211-.021,1.09,1.09,0,0,1-.2-.06,1.07,1.07,0,0,1-.182-.1,1.067,1.067,0,0,1-.377-.469,1.063,1.063,0,0,1-.06-.2,1.036,1.036,0,0,1-.02-.206,1.052,1.052,0,0,1,.02-.209m-4.583-2.291a.992.992,0,0,1,.059-.2,1.051,1.051,0,0,1,.1-.183,1.074,1.074,0,0,1,.132-.16,1.01,1.01,0,0,1,.16-.131,1.072,1.072,0,0,1,.182-.1,1.118,1.118,0,0,1,.2-.06,1.065,1.065,0,0,1,.95.288,1.01,1.01,0,0,1,.131.16,1.051,1.051,0,0,1,.1.183.988.988,0,0,1,.06.2,1.04,1.04,0,0,1,0,.417.985.985,0,0,1-.06.2,1.069,1.069,0,0,1-.1.182,1.011,1.011,0,0,1-.131.16,1.08,1.08,0,0,1-.155.125,1.054,1.054,0,0,1-.183.1,1.066,1.066,0,0,1-.2.06,1.043,1.043,0,0,1-.211.02,1.059,1.059,0,0,1-.211-.02,1.121,1.121,0,0,1-.19-.052,1.056,1.056,0,0,1-.342-.229,1.07,1.07,0,0,1-.228-.342.987.987,0,0,1-.06-.2,1.045,1.045,0,0,1,0-.418" transform="translate(0 -224.391)" fill="#fff"/>
        <path id="패스_13862" data-name="패스 13862" d="M22.436,160.8c1.512,0,3.018-.071,4.482-.211a15.944,15.944,0,0,1,17.955-6.426V144.47a16.769,16.769,0,0,1-5.369,3.82,40.6,40.6,0,0,1-17.067,3.392A40.594,40.594,0,0,1,5.37,148.29,16.774,16.774,0,0,1,0,144.47v6.157C0,156.141,10.275,160.8,22.436,160.8M7.077,153.17a1.118,1.118,0,0,1,.06-.2A1.055,1.055,0,0,1,7.7,152.4a1.118,1.118,0,0,1,.2-.06,1.065,1.065,0,0,1,.95.289,1.011,1.011,0,0,1,.131.16,1.071,1.071,0,0,1,.1.182,1.118,1.118,0,0,1,.06.2,1.055,1.055,0,0,1-1.235,1.241,1.114,1.114,0,0,1-.2-.06,1.068,1.068,0,0,1-.182-.1,1.01,1.01,0,0,1-.16-.131,1.055,1.055,0,0,1-.289-.95Zm-4.583-2.291a.987.987,0,0,1,.06-.2,1.039,1.039,0,0,1,.1-.183,1.075,1.075,0,0,1,.132-.16,1.058,1.058,0,0,1,1.332-.131,1.027,1.027,0,0,1,.291.291,1.084,1.084,0,0,1,.1.183,1.065,1.065,0,0,1,.06.2,1.04,1.04,0,0,1,0,.417,1.119,1.119,0,0,1-.06.2,1.075,1.075,0,0,1-.1.182,1.009,1.009,0,0,1-.131.16,1.075,1.075,0,0,1-.158.128,1.047,1.047,0,0,1-.183.1,1.066,1.066,0,0,1-.2.06,1.042,1.042,0,0,1-.211.02,1.055,1.055,0,0,1-.746-.309,1.075,1.075,0,0,1-.132-.16,1.061,1.061,0,0,1-.093-.178,1.032,1.032,0,0,1-.06-.2,1.05,1.05,0,0,1-.021-.211,1.034,1.034,0,0,1,.021-.2" transform="translate(0 -129.222)" fill="#fff"/>
        <path id="패스_13863" data-name="패스 13863" d="M22.436,0C34.827,0,44.872,4.555,44.872,10.175S34.827,20.349,22.436,20.349,0,15.794,0,10.175,10.045,0,22.436,0" fill="#fff"/>
        <path id="패스_13864" data-name="패스 13864" d="M262.5,263.892v-13.8a13.842,13.842,0,1,0,14.857,14.858h-13.8a1.055,1.055,0,0,1-1.055-1.055" transform="translate(-223.354 -223.694)" fill="#fff"/>
        <path id="패스_13865" data-name="패스 13865" d="M24.941,364.419c-.835.041-1.674.062-2.5.062A40.594,40.594,0,0,1,5.37,361.089,16.853,16.853,0,0,1,0,357.27v6.157C0,368.941,10.275,373.6,22.436,373.6a45.856,45.856,0,0,0,8.595-.8,16.015,16.015,0,0,1-6.09-8.387m-20.378.131a1.064,1.064,0,0,1-.06.2,1.125,1.125,0,0,1-.1.183,1.062,1.062,0,0,1-.131.16,1.007,1.007,0,0,1-.158.131,1.046,1.046,0,0,1-.183.1,1.073,1.073,0,0,1-.2.06,1.034,1.034,0,0,1-.211.021,1.062,1.062,0,0,1-.746-.309,1.131,1.131,0,0,1-.132-.16,1.112,1.112,0,0,1-.1-.183.984.984,0,0,1-.06-.2,1.04,1.04,0,0,1,0-.417.986.986,0,0,1,.06-.2,1.118,1.118,0,0,1,.1-.183,1.129,1.129,0,0,1,.132-.16,1.006,1.006,0,0,1,.164-.124,1.07,1.07,0,0,1,.182-.1,1.112,1.112,0,0,1,.2-.06,1.042,1.042,0,0,1,.413,0,1.061,1.061,0,0,1,.2.06,1.041,1.041,0,0,1,.185.1,1.013,1.013,0,0,1,.16.131,1.062,1.062,0,0,1,.131.16,1.122,1.122,0,0,1,.1.183,1.065,1.065,0,0,1,.06.2,1.05,1.05,0,0,1,.021.211,1.037,1.037,0,0,1-.023.2m4.584,2.3a1.066,1.066,0,0,1-.06.2,1.048,1.048,0,0,1-.1.183,1.027,1.027,0,0,1-.291.291,1.052,1.052,0,0,1-.183.1.993.993,0,0,1-.2.06,1.037,1.037,0,0,1-.211.021,1.054,1.054,0,0,1-.211-.021,1.037,1.037,0,0,1-.2-.06,1.074,1.074,0,0,1-.182-.1,1.01,1.01,0,0,1-.16-.131,1.074,1.074,0,0,1-.132-.16,1.048,1.048,0,0,1-.1-.183,1.05,1.05,0,0,1,0-.806,1.048,1.048,0,0,1,.1-.183,1.074,1.074,0,0,1,.132-.16,1.008,1.008,0,0,1,.16-.131,1.07,1.07,0,0,1,.182-.1,1.055,1.055,0,0,1,.61-.06,1.073,1.073,0,0,1,.38.157,1.026,1.026,0,0,1,.291.291,1.048,1.048,0,0,1,.1.183,1.065,1.065,0,0,1,.06.2,1.013,1.013,0,0,1,0,.412Z" transform="translate(0 -319.561)" fill="#fff"/>
        <path id="패스_13866" data-name="패스 13866" d="M390.86,262.837h12.746A13.865,13.865,0,0,0,390.86,250.09Z" transform="translate(-349.606 -223.694)" fill="#fff"/>
      </g>
    </g>
  </g>
</svg>
