<svg id="m_home00_wt" xmlns="http://www.w3.org/2000/svg" xmlns:xlink="http://www.w3.org/1999/xlink" width="54" height="54" viewBox="0 0 54 54">
  <defs>
    <clipPath id="clip-path">
      <rect id="사각형_7333" data-name="사각형 7333" width="53.995" height="54" fill="#afb1b7"/>
    </clipPath>
  </defs>
  <rect id="사각형_7320" data-name="사각형 7320" width="54" height="54" fill="none"/>
  <g id="그룹_13969" data-name="그룹 13969">
    <g id="그룹_13968" data-name="그룹 13968" clip-path="url(#clip-path)">
      <path id="패스_13927" data-name="패스 13927" d="M52.544,23.487l0,0L30.513,1.457a4.97,4.97,0,0,0-7.031,0L1.466,23.472l-.022.023a4.969,4.969,0,0,0,3.308,8.47q.076.007.153.007h.878V48.182A5.825,5.825,0,0,0,11.6,54H20.22A1.582,1.582,0,0,0,21.8,52.418V39.709a2.657,2.657,0,0,1,2.654-2.654h5.083a2.657,2.657,0,0,1,2.654,2.654V52.418A1.582,1.582,0,0,0,33.776,54h8.618a5.825,5.825,0,0,0,5.818-5.818V31.972h.814a4.972,4.972,0,0,0,3.518-8.484" transform="translate(0)" fill="#afb1b7"/>
    </g>
  </g>
</svg>
