<svg xmlns="http://www.w3.org/2000/svg" xmlns:xlink="http://www.w3.org/1999/xlink" width="54" height="54" viewBox="0 0 54 54">
  <defs>
    <clipPath id="clip-path">
      <rect id="사각형_7293" data-name="사각형 7293" width="52.865" height="54" fill="#2646ab"/>
    </clipPath>
  </defs>
  <g id="m_management03_blue" transform="translate(-1677 -951)">
    <rect id="사각형_7281" data-name="사각형 7281" width="54" height="54" transform="translate(1677 951)" fill="none"/>
    <g id="그룹_13907" data-name="그룹 13907" transform="translate(1678 951)">
      <rect id="사각형_7292" data-name="사각형 7292" width="5.62" height="6.751" transform="translate(44.117 26.476) rotate(-45)" fill="#2646ab"/>
      <path id="패스_13867" data-name="패스 13867" d="M251.271,279.192l-.791,5.57,5.57-.8,15.111-15.111-4.771-4.771Z" transform="translate(-223.854 -236.009)" fill="#2646ab"/>
      <g id="그룹_13906" data-name="그룹 13906">
        <g id="그룹_13905" data-name="그룹 13905" clip-path="url(#clip-path)">
          <path id="패스_13868" data-name="패스 13868" d="M23.973,51.406,25.3,42.129l17.45-17.45V4.5a4.5,4.5,0,0,0-4.5-4.5H4.5A4.5,4.5,0,0,0,0,4.5v45A4.5,4.5,0,0,0,4.5,54H38.251a4.5,4.5,0,0,0,4.5-4.5V40.581l-9.5,9.5ZM25.316,6.752H35.444a1.123,1.123,0,1,1,0,2.245H25.316a1.123,1.123,0,1,1,0-2.245M8.436,13.5h27a1.123,1.123,0,1,1,0,2.245h-27a1.123,1.123,0,0,1,0-2.245Zm0,6.752h27a1.123,1.123,0,1,1,0,2.245h-27a1.123,1.123,0,1,1,0-2.245Zm0,6.752h27a1.123,1.123,0,1,1,0,2.245h-27a1.123,1.123,0,1,1,0-2.245ZM17.11,41.3l-6.752,6.752a1.128,1.128,0,0,1-1.59,0L6.523,45.794a1.124,1.124,0,0,1,1.59-1.59l1.454,1.454L15.52,39.7a1.124,1.124,0,0,1,1.59,1.59Z" fill="#2646ab"/>
        </g>
      </g>
    </g>
  </g>
</svg>
