<svg id="m_management01_wt" xmlns="http://www.w3.org/2000/svg" xmlns:xlink="http://www.w3.org/1999/xlink" width="54" height="54" viewBox="0 0 54 54">
  <defs>
    <clipPath id="clip-path">
      <rect id="사각형_7283" data-name="사각형 7283" width="54" height="54" transform="translate(0 0)" fill="#afb1b7"/>
    </clipPath>
  </defs>
  <rect id="사각형_7267" data-name="사각형 7267" width="54" height="54" fill="none"/>
  <g id="그룹_13894" data-name="그룹 13894">
    <g id="그룹_13893" data-name="그룹 13893" transform="translate(0 0)" clip-path="url(#clip-path)">
      <path id="패스_13840" data-name="패스 13840" d="M0,30.648l.21,1.166A27.231,27.231,0,0,0,4.89,42.3l.676.975,3.107-1.035,3.092,3.092L10.73,48.433l.975.782A27.037,27.037,0,0,0,22.186,53.79l1.166.21,1.462-2.921h4.372L30.648,54l1.166-.21A27.034,27.034,0,0,0,42.3,49.216l.975-.782-1.035-3.107,3.092-3.092,3.107,1.035.677-.975a27.236,27.236,0,0,0,4.68-10.481L54,30.648l-3.164-1.462V24.814L54,23.352l-.21-1.166A27.239,27.239,0,0,0,49.11,11.7l-.677-.975-3.107,1.035L42.235,8.674,43.27,5.567,42.3,4.89A27.233,27.233,0,0,0,31.814.21L30.648,0,29.186,3.27H24.814L23.352,0,22.186.21A27.231,27.231,0,0,0,11.7,4.89l-.975.676,1.035,3.107L8.674,11.765,5.567,10.73,4.89,11.7A27.233,27.233,0,0,0,.21,22.186L0,23.352l3.164,1.462v4.372ZM27,9.6A17.4,17.4,0,1,1,9.6,27,17.422,17.422,0,0,1,27,9.6" transform="translate(0 0)" fill="#afb1b7"/>
      <path id="패스_13841" data-name="패스 13841" d="M220.492,155.746A4.746,4.746,0,1,1,215.746,151a4.746,4.746,0,0,1,4.746,4.746" transform="translate(-188.746 -135.074)" fill="#afb1b7"/>
      <path id="패스_13842" data-name="패스 13842" d="M184.984,265.051v-2.658a9.469,9.469,0,0,0-2.784-6.708,9.567,9.567,0,0,0-1.8-1.375,7.737,7.737,0,0,1-9.821-.006A9.444,9.444,0,0,0,166,262.393v2.658a14.109,14.109,0,0,0,18.984,0" transform="translate(-148.492 -227.483)" fill="#afb1b7"/>
    </g>
  </g>
</svg>
