<svg id="m_management04_blue" xmlns="http://www.w3.org/2000/svg" xmlns:xlink="http://www.w3.org/1999/xlink" width="54" height="54" viewBox="0 0 54 54">
  <defs>
    <clipPath id="clip-path">
      <rect id="사각형_7306" data-name="사각형 7306" width="54" height="50.335" fill="#2676ef"/>
    </clipPath>
  </defs>
  <rect id="사각형_7282" data-name="사각형 7282" width="54" height="54" fill="none"/>
  <g id="그룹_13936" data-name="그룹 13936" transform="translate(0 2)">
    <g id="그룹_13935" data-name="그룹 13935" clip-path="url(#clip-path)">
      <path id="패스_13919" data-name="패스 13919" d="M70.569,22.06A13.332,13.332,0,0,1,70.558.624a11.271,11.271,0,1,0,.01,21.436" transform="translate(-49.08 -0.062)" fill="#2676ef"/>
      <path id="패스_13920" data-name="패스 13920" d="M154.714,19.622c7.049,6.521,18.916,1.4,18.851-8.336.169-8.6-9.794-14.165-16.993-9.716-6.445,3.569-7.454,13.251-1.858,18.052M166.631,9.1a1.038,1.038,0,0,1-2.076,0c0-.467-.882-1.142-2.263-1.142-2.982.111-2.974,2.176,0,2.294,5.02-.021,6.04,5.4,1.038,6.343V17.1a1.038,1.038,0,0,1-2.076,0V16.59c-1.92-.332-3.311-1.588-3.311-3.125a1.038,1.038,0,0,1,2.076,0c.192,1.483,4.345,1.494,4.536,0,0-.467-.882-1.142-2.263-1.142-5.026.013-6.057-5.4-1.038-6.353V5.462a1.038,1.038,0,0,1,2.076,0v.509c1.92.332,3.3,1.588,3.3,3.125" transform="translate(-132.863 0)" fill="#2676ef"/>
      <path id="패스_13921" data-name="패스 13921" d="M315.57,11.349a13.305,13.305,0,0,1-5.408,10.713,11.272,11.272,0,1,0,0-21.436,13.317,13.317,0,0,1,5.408,10.723" transform="translate(-272.791 -0.063)" fill="#2676ef"/>
      <path id="패스_13922" data-name="패스 13922" d="M6.322,211.872H0v22.256H6.322a1.714,1.714,0,0,0,1.713-1.713V213.585a1.714,1.714,0,0,0-1.713-1.713" transform="translate(0 -186.344)" fill="#2676ef"/>
      <path id="패스_13923" data-name="패스 13923" d="M127.619,252.74a2.907,2.907,0,0,0-3.427-2.271q-.1.021-.207.05l-8.73,3.052a4.524,4.524,0,0,1-3.073,1.225H99.425a1.038,1.038,0,1,1-.019-2.076h12.777c3.705-.191,3.554-6.457,0-6.54H100.546a4.311,4.311,0,0,1-2.471-.789,10.381,10.381,0,0,0-5.19-1.64H83.916v15.021c9.685,5.855,14.035,6.062,20.824,5.917,3.457-.073,11.18-2.824,21.187-7.557A3.717,3.717,0,0,0,127.619,252.74Z" transform="translate(-73.805 -214.381)" fill="#2676ef"/>
    </g>
  </g>
</svg>
