<svg id="m_management01_blue" xmlns="http://www.w3.org/2000/svg" xmlns:xlink="http://www.w3.org/1999/xlink" width="54" height="54" viewBox="0 0 54 54">
  <defs>
    <clipPath id="clip-path">
      <rect id="사각형_7388" data-name="사각형 7388" width="54" height="41.346" fill="#2676ef"/>
    </clipPath>
  </defs>
  <rect id="사각형_7387" data-name="사각형 7387" width="54" height="54" fill="none"/>
  <g id="그룹_14007" data-name="그룹 14007" transform="translate(0 6)">
    <g id="그룹_14005" data-name="그룹 14005" transform="translate(0 0)" clip-path="url(#clip-path)">
      <path id="패스_13940" data-name="패스 13940" d="M27,0A27.053,27.053,0,0,0,0,27a26.47,26.47,0,0,0,1.858,9.866,7.062,7.062,0,0,0,6.557,4.481H45.585a7.061,7.061,0,0,0,6.557-4.481A26.46,26.46,0,0,0,54,27,27.053,27.053,0,0,0,27,0M12.46,33.8a1.784,1.784,0,0,1-.835,2.387.143.143,0,0,1-.04.023,1.922,1.922,0,0,1-.767.182,1.815,1.815,0,0,1-1.648-1.057A19.287,19.287,0,0,1,7.311,27,19.72,19.72,0,0,1,27,7.309a20.77,20.77,0,0,1,5.991.909,1.839,1.839,0,1,1-1.074,3.519.034.034,0,0,0-.023-.006A15.564,15.564,0,0,0,27,10.964,16.057,16.057,0,0,0,12.46,33.8M39.017,16.3l-8.873,9.39a4.257,4.257,0,0,1,.074.659A3.217,3.217,0,1,1,27,23.128a1.205,1.205,0,0,1,.512.074l8.879-9.39A1.807,1.807,0,1,1,39.017,16.3m5.815,19.036a1.815,1.815,0,0,1-1.648,1.057,1.922,1.922,0,0,1-.767-.182,1.79,1.79,0,0,1-.892-2.37c.006-.011.011-.028.017-.04a16.149,16.149,0,0,0,1.5-6.8,15.663,15.663,0,0,0-1.393-6.5,1.815,1.815,0,0,1,3.28-1.557c.006.011.006.017.011.023A18.958,18.958,0,0,1,46.69,27a19.287,19.287,0,0,1-1.859,8.333" transform="translate(0 0)" fill="#2676ef"/>
    </g>
  </g>
</svg>
