<svg xmlns="http://www.w3.org/2000/svg" xmlns:xlink="http://www.w3.org/1999/xlink" width="54" height="54" viewBox="0 0 54 54">
  <defs>
    <clipPath id="clip-path">
      <rect id="사각형_7287" data-name="사각형 7287" width="54" height="37.717" fill="#2646ab"/>
    </clipPath>
  </defs>
  <g id="m_workuser03_blue" transform="translate(-588 -951)">
    <rect id="사각형_7267" data-name="사각형 7267" width="54" height="54" transform="translate(588 951)" fill="none"/>
    <g id="그룹_13900" data-name="그룹 13900" transform="translate(588 958.543)">
      <g id="그룹_13899" data-name="그룹 13899" transform="translate(0 0)" clip-path="url(#clip-path)">
        <path id="패스_13849" data-name="패스 13849" d="M81.764,26.277a9.79,9.79,0,0,0-4.946-8.5V34.781a9.79,9.79,0,0,0,4.946-8.5" transform="translate(-38.196 -8.837)" fill="#2646ab"/>
        <path id="패스_13850" data-name="패스 13850" d="M8.826,30.438c.042,0,.084.007.123.007h2.158v8.5a2.392,2.392,0,0,0,2.393,2.39h3.177a2.4,2.4,0,0,0,2.391-2.413L18.949,30.8l11.379,3.7V7.274L17.262,11.951H8.949c-.039,0-.072,0-.117,0a9.251,9.251,0,0,0-.006,18.483" transform="translate(0 -3.617)" fill="#2646ab"/>
        <path id="패스_13851" data-name="패스 13851" d="M65.958,35.421A2.794,2.794,0,0,0,68.6,32.5V2.92a2.653,2.653,0,1,0-5.279,0V32.5a2.793,2.793,0,0,0,2.639,2.921" transform="translate(-31.484 0)" fill="#2646ab"/>
        <path id="패스_13852" data-name="패스 13852" d="M87.381,17.768a1.41,1.41,0,0,0,.578-.126l5.412-2.431a1.413,1.413,0,1,0-1.156-2.578L86.8,15.063a1.415,1.415,0,0,0,.582,2.7" transform="translate(-42.744 -6.22)" fill="#2646ab"/>
        <path id="패스_13853" data-name="패스 13853" d="M98.462,33.249a1.366,1.366,0,0,0-1.437-1.266l-6.326.4a1.352,1.352,0,0,0,.084,2.7h.088l6.324-.406a1.351,1.351,0,0,0,1.267-1.434" transform="translate(-44.465 -15.901)" fill="#2646ab"/>
        <path id="패스_13854" data-name="패스 13854" d="M86.366,48.2l3.977,4.09a1.409,1.409,0,0,0,1.014.425,1.392,1.392,0,0,0,.983-.4,1.406,1.406,0,0,0,.028-2L88.39,46.221A1.414,1.414,0,0,0,86.366,48.2" transform="translate(-42.743 -22.77)" fill="#2646ab"/>
      </g>
    </g>
  </g>
</svg>
