<svg xmlns="http://www.w3.org/2000/svg" xmlns:xlink="http://www.w3.org/1999/xlink" width="54" height="54" viewBox="0 0 54 54">
  <defs>
    <clipPath id="clip-path">
      <rect id="사각형_7286" data-name="사각형 7286" width="54" height="53.94" fill="#fff"/>
    </clipPath>
  </defs>
  <g id="m_workuser02_wt" transform="translate(-412 -951)">
    <rect id="사각형_7267" data-name="사각형 7267" width="54" height="54" transform="translate(412 951)" fill="none"/>
    <g id="그룹_13898" data-name="그룹 13898" transform="translate(412 951)">
      <g id="그룹_13897" data-name="그룹 13897" clip-path="url(#clip-path)">
        <path id="패스_13846" data-name="패스 13846" d="M55.14,18.344A9.2,9.2,0,0,0,64.855,6.178L60.737,10.3a4,4,0,1,1-5.66-5.66L59.2.514A9.2,9.2,0,0,0,46.988,9.76a6.036,6.036,0,0,1-2.273,5.046C32.145,24.913,16.834,38.624,15.191,40.268a7.011,7.011,0,0,0,9.914,9.914c1.669-1.669,15.784-17.433,25.93-30.108a4.623,4.623,0,0,1,4.105-1.73M24.069,46.691a3.818,3.818,0,1,1,0-5.738,3.832,3.832,0,0,1,0,5.738" transform="translate(-11.365 0)" fill="#fff"/>
        <path id="패스_13847" data-name="패스 13847" d="M7.192,37.935c1.508-1.35,3.328-2.963,5.353-4.739A14.631,14.631,0,0,1,32.519,16.318a4.873,4.873,0,0,0,.365-.329,4.64,4.64,0,0,0,1.375-3.549,10.563,10.563,0,0,1,.14-2.459A21.185,21.185,0,0,0,30.471,8.89L29.213,3H24.322L23.064,8.89a21.09,21.09,0,0,0-8.444,3.5L9.569,9.114,6.111,12.572l3.272,5.051a21.09,21.09,0,0,0-3.5,8.444L0,27.325v4.891l5.887,1.258a21.162,21.162,0,0,0,1.305,4.461" transform="translate(0 -2.598)" fill="#fff"/>
        <path id="패스_13848" data-name="패스 13848" d="M166.495,145.447a10.64,10.64,0,0,1-2.964.081,3.215,3.215,0,0,0-2.637.948,3.4,3.4,0,0,0-.249.278l-.476.593a14.63,14.63,0,0,1-16.811,19.9c-1.779,2.03-3.4,3.855-4.752,5.368a21.158,21.158,0,0,0,4.365,1.265l1.258,5.887h4.891l1.258-5.887a21.089,21.089,0,0,0,8.444-3.5l5.051,3.272,3.458-3.458-3.272-5.051a21.09,21.09,0,0,0,3.5-8.444l5.887-1.258v-4.891l-5.887-1.258a21.173,21.173,0,0,0-1.06-3.848" transform="translate(-119.907 -125.826)" fill="#fff"/>
      </g>
    </g>
  </g>
</svg>
