<svg id="m_workuser01_wt" xmlns="http://www.w3.org/2000/svg" xmlns:xlink="http://www.w3.org/1999/xlink" width="54" height="54" viewBox="0 0 54 54">
  <defs>
    <clipPath id="clip-path">
      <rect id="사각형_7285" data-name="사각형 7285" width="54" height="53.958" fill="#afb1b7"/>
    </clipPath>
  </defs>
  <rect id="사각형_7267" data-name="사각형 7267" width="54" height="54" fill="none"/>
  <g id="그룹_13896" data-name="그룹 13896">
    <g id="그룹_13895" data-name="그룹 13895" clip-path="url(#clip-path)">
      <path id="패스_13843" data-name="패스 13843" d="M398.777,161.333a5.045,5.045,0,1,1-5.045,5.045,5.045,5.045,0,0,1,5.045-5.045" transform="translate(-352.346 -144.375)" fill="#afb1b7"/>
      <rect id="사각형_7284" data-name="사각형 7284" width="10.091" height="10.091" transform="translate(41.386 43.867)" fill="#afb1b7"/>
      <path id="패스_13844" data-name="패스 13844" d="M38.023,22a8.386,8.386,0,0,1,4.569-7.437,21.931,21.931,0,1,0-7.092,24.6V34.618a10.888,10.888,0,0,1,3.793-8.224A8.327,8.327,0,0,1,38.023,22M20.364,3.5h3.364V6.868H20.364Zm0,10.091h3.364v6.727h6.727v3.364H20.364ZM3.546,20.322H6.909v3.364H3.546ZM6.865,32.71,5.183,29.8,8.1,28.116l1.682,2.913ZM8.1,15.892,5.183,14.21,6.865,11.3l2.913,1.682Zm6.155,22.974-2.913-1.682,1.682-2.913,2.913,1.682ZM13.02,9.737,11.338,6.824l2.913-1.682,1.682,2.913ZM23.727,40.5H20.364V37.14h3.364Zm6.112-1.638-1.682-2.913,2.913-1.682,1.682,2.913ZM31.07,9.737,28.157,8.055l1.682-2.913,2.913,1.682Zm3.243,3.242L37.226,11.3l1.682,2.913-2.913,1.682Z" transform="translate(0 0)" fill="#afb1b7"/>
      <path id="패스_13845" data-name="패스 13845" d="M382.148,274.472a8.305,8.305,0,0,1-9.7,0,7.518,7.518,0,0,0-2.72,5.767v7.568h15.136v-7.568A7.517,7.517,0,0,0,382.148,274.472Z" transform="translate(-330.868 -245.621)" fill="#afb1b7"/>
    </g>
  </g>
</svg>
