<svg xmlns="http://www.w3.org/2000/svg" xmlns:xlink="http://www.w3.org/1999/xlink" width="54" height="54" viewBox="0 0 54 54">
  <defs>
    <clipPath id="clip-path">
      <rect id="사각형_7288" data-name="사각형 7288" width="54" height="48.1" fill="#2646ab"/>
    </clipPath>
  </defs>
  <g id="m_workuser04_blue" transform="translate(-764 -951)">
    <rect id="사각형_7267" data-name="사각형 7267" width="54" height="54" transform="translate(764 951)" fill="none"/>
    <g id="그룹_13902" data-name="그룹 13902" transform="translate(764 953.206)">
      <g id="그룹_13901" data-name="그룹 13901" clip-path="url(#clip-path)">
        <path id="패스_13855" data-name="패스 13855" d="M24.48,66.8c-7.739,0-14.572,2.612-19.034,6.66A15.244,15.244,0,0,0,0,84.726c0,4.376,2.14,8.385,5.7,11.5.964.848-.347,6.216-3.479,9.859a.468.468,0,0,0,.443.761c9.426-1.224,13.059-5.359,13.637-5.2a32.582,32.582,0,0,0,8.182,1.022c13.526,0,24.48-8.031,24.48-17.936S38,66.8,24.48,66.8M11.719,81.112V84.08H14.89a.964.964,0,0,1,0,1.928H11.719V89.94a.964.964,0,0,1-1.928,0V80.148a.96.96,0,0,1,.957-.964h5.9a.964.964,0,0,1,0,1.928Zm13.676,9.2-1.108-2.631H20.046l-1.108,2.631a.961.961,0,0,1-1.773-.742l1.359-3.229v-.01c.116-.27,2.679-6.409,2.824-6.66a.935.935,0,0,1,1.658.01c.135.251,4.057,9.618,4.163,9.888a.961.961,0,0,1-1.773.742Zm12.741-1.089A.963.963,0,0,1,36.691,90.5l-.386-.424a5.882,5.882,0,1,1,1.475-1.253Z" transform="translate(0 -58.753)" fill="#2646ab"/>
        <path id="패스_13856" data-name="패스 13856" d="M247.772,185.6a3.932,3.932,0,0,0,0,7.864,3.81,3.81,0,0,0,1.687-.4l-1.619-1.831a.963.963,0,1,1,1.446-1.272l1.658,1.87a3.884,3.884,0,0,0,.761-2.3A3.936,3.936,0,0,0,247.772,185.6Z" transform="translate(-214.464 -163.24)" fill="#2646ab"/>
        <path id="패스_13857" data-name="패스 13857" d="M100.745,26.725C101.5,16.883,90.839,6.12,74.367,6.12a31.627,31.627,0,0,0-17.647,5.1C60.324,4.674,69.056,0,79.407,0c13.522,0,24.48,8.028,24.48,17.936a14.274,14.274,0,0,1-3.142,8.79" transform="translate(-49.887)" fill="#2646ab"/>
        <path id="패스_13858" data-name="패스 13858" d="M173.12,201.366h2.621l-1.311-3.123Z" transform="translate(-152.264 -174.36)" fill="#2646ab"/>
      </g>
    </g>
  </g>
</svg>
