<svg xmlns="http://www.w3.org/2000/svg" xmlns:xlink="http://www.w3.org/1999/xlink" width="54" height="54" viewBox="0 0 54 54">
  <defs>
    <clipPath id="clip-path">
      <rect id="사각형_7303" data-name="사각형 7303" width="41" height="54" transform="translate(0 0)" fill="#fff"/>
    </clipPath>
  </defs>
  <g id="m_workuser05_wt" transform="translate(-941 -951)">
    <rect id="사각형_7267" data-name="사각형 7267" width="54" height="54" transform="translate(941 951)" fill="none"/>
    <g id="그룹_13933" data-name="그룹 13933" transform="translate(948 950.911)">
      <g id="그룹_13932" data-name="그룹 13932" transform="translate(0 0.089)" clip-path="url(#clip-path)">
        <path id="패스_13917" data-name="패스 13917" d="M39.791,31.394A4.713,4.713,0,0,0,36.433,30H34.327v2.112a4.226,4.226,0,0,1-4.219,4.224H11.124A4.226,4.226,0,0,1,6.9,32.112V30H4.792A4.755,4.755,0,0,0,.046,34.746L0,76.137a4.749,4.749,0,0,0,4.746,4.757H36.388a4.755,4.755,0,0,0,4.746-4.746l.046-41.391a4.723,4.723,0,0,0-1.388-3.363M21.128,45.838h11.24a1.584,1.584,0,0,1,0,3.168H21.128a1.584,1.584,0,0,1,0-3.168m0,10.559h11.24a1.584,1.584,0,0,1,0,3.168H21.128a1.584,1.584,0,0,1,0-3.168m0,10.559H32.413a1.584,1.584,0,0,1,0,3.168H21.128a1.584,1.584,0,0,1,0-3.168M7.648,45.9a1.581,1.581,0,0,1,2.237,0l.86.861,3.649-3.653a1.583,1.583,0,1,1,2.237,2.24l-4.767,4.772a1.581,1.581,0,0,1-2.237,0L7.648,48.141a1.585,1.585,0,0,1,0-2.24m0,11.365a1.581,1.581,0,0,1,2.237,0l.86.861,3.649-3.653a1.583,1.583,0,1,1,2.237,2.24l-4.767,4.772a1.581,1.581,0,0,1-2.237,0L7.648,59.506a1.585,1.585,0,0,1,0-2.24m0,10.559a1.581,1.581,0,0,1,2.237,0l.86.861,3.649-3.653a1.583,1.583,0,1,1,2.237,2.24l-4.767,4.772a1.581,1.581,0,0,1-2.237,0L7.648,70.065a1.585,1.585,0,0,1,0-2.24" transform="translate(0 -26.893)" fill="#fff"/>
        <path id="패스_13918" data-name="패스 13918" d="M95.361,5.279a1.055,1.055,0,0,0,1.055,1.056H115.4a1.055,1.055,0,0,0,1.055-1.056V1.056A1.055,1.055,0,0,0,115.4,0H96.416a1.055,1.055,0,0,0-1.055,1.056Z" transform="translate(-85.292 -0.061)" fill="#fff"/>
      </g>
    </g>
  </g>
</svg>
